<svg width="931" height="98" viewBox="0 0 931 98" fill="none" xmlns="http://www.w3.org/2000/svg" style="">
<g filter="url(#filter0_d)">
<mask id="path-1-inside-1" fill="white">
<path d="M33.008 13.84C28.656 13.84 25.264 15.504 22.832 18.832C20.464 22.16 19.28 27.952 19.28 36.208C19.28 52.016 23.632 59.92 32.336 59.92C35.792 59.92 38.864 59.376 41.552 58.288V47.44C38.608 46.48 36.592 45.296 35.504 43.888L36.464 36.304H58.928L59.888 43.888C59.056 44.912 57.552 45.904 55.376 46.864V64.624C52.304 66.864 48.912 68.464 45.2 69.424C41.552 70.32 36.976 70.768 31.472 70.768C22.32 70.768 15.6 68.176 11.312 62.992C7.024 57.744 4.88 49.264 4.88 37.552C4.88 25.776 7.40801 17.072 12.464 11.44C17.584 5.80798 24.56 2.99198 33.392 2.99198C42.288 2.99198 49.552 5.00798 55.184 9.03998C55.184 9.42398 55.184 10.16 55.184 11.248C55.184 12.336 54.96 14.192 54.512 16.816C54.064 19.44 53.424 21.584 52.592 23.248H43.76C42.8 21.456 42.16 18.8 41.84 15.28C39.088 14.32 36.144 13.84 33.008 13.84Z" class="FhgIMuAO_0"></path>
<path d="M86.2033 70.768C78.6513 70.768 73.0513 68.752 69.4033 64.72C65.7553 60.688 63.9313 54.608 63.9313 46.48C63.9313 38.288 65.9473 32.048 69.9793 27.76C74.0753 23.408 79.9313 21.232 87.5473 21.232C95.1633 21.232 100.795 23.152 104.443 26.992C108.155 30.832 110.011 36.848 110.011 45.04C110.011 53.168 107.931 59.504 103.771 64.048C99.6753 68.528 93.8193 70.768 86.2033 70.768ZM77.7553 45.616C77.7553 55.856 80.8273 60.976 86.9713 60.976C90.1073 60.976 92.4113 59.824 93.8833 57.52C95.4193 55.152 96.1873 51.312 96.1873 46C96.1873 36.016 93.0513 31.024 86.7793 31.024C83.7073 31.024 81.4353 32.144 79.9633 34.384C78.4913 36.56 77.7553 40.304 77.7553 45.616Z" class="FhgIMuAO_1"></path>
<path d="M137.109 70.768C129.557 70.768 123.958 68.752 120.31 64.72C116.662 60.688 114.838 54.608 114.838 46.48C114.838 38.288 116.854 32.048 120.886 27.76C124.982 23.408 130.838 21.232 138.454 21.232C146.07 21.232 151.702 23.152 155.35 26.992C159.062 30.832 160.917 36.848 160.917 45.04C160.917 53.168 158.838 59.504 154.678 64.048C150.582 68.528 144.725 70.768 137.109 70.768ZM128.662 45.616C128.662 55.856 131.734 60.976 137.878 60.976C141.014 60.976 143.318 59.824 144.79 57.52C146.326 55.152 147.094 51.312 147.094 46C147.094 36.016 143.958 31.024 137.686 31.024C134.614 31.024 132.342 32.144 130.87 34.384C129.398 36.56 128.662 40.304 128.662 45.616Z" class="FhgIMuAO_2"></path>
<path d="M190.8 1.83998C194.448 1.00798 197.936 0.59198 201.264 0.59198C204.592 0.59198 207.44 0.687981 209.808 0.879982V58.48C211.728 58.8 213.488 59.344 215.088 60.112V67.696C211.248 69.744 206.384 70.768 200.496 70.768C199.856 70.448 199.216 69.872 198.576 69.04C198 68.208 197.68 67.408 197.616 66.64C196.208 67.792 194.384 68.784 192.144 69.616C189.904 70.384 187.696 70.768 185.52 70.768C178.608 70.768 173.584 68.912 170.448 65.2C167.376 61.424 165.84 55.28 165.84 46.768C165.84 37.104 168.208 30.32 172.944 26.416C177.104 22.96 182.224 21.232 188.304 21.232C190.992 21.232 193.68 21.552 196.368 22.192V12.688C193.424 11.856 191.248 10.704 189.84 9.23198L190.8 1.83998ZM187.536 60.976C191.184 60.976 194.128 59.888 196.368 57.712V31.984C193.744 31.344 190.96 31.024 188.016 31.024C185.072 31.024 182.928 32.336 181.584 34.96C180.304 37.52 179.664 41.392 179.664 46.576C179.664 51.696 180.304 55.376 181.584 57.616C182.864 59.856 184.848 60.976 187.536 60.976Z" class="FhgIMuAO_3"></path>
<path d="M303.532 33.808C303.532 31.248 303.756 27.28 304.204 21.904L304.396 19.6L303.436 19.504C301.964 24.944 300.684 29.264 299.596 32.464L286.828 70H274.06L260.62 32.464C259.404 29.584 258.316 26 257.356 21.712L256.78 19.504L255.82 19.6C256.396 25.296 256.684 30.032 256.684 33.808V59.056C259.052 59.952 260.812 61.136 261.964 62.608L261.004 70H242.188L241.228 62.608C242.38 61.136 244.14 59.952 246.508 59.056V14.704C243.884 13.744 242.06 12.56 241.036 11.152L241.996 3.75998H263.884L277.9 42.448C279.692 46.672 280.844 50.544 281.356 54.064L281.644 55.696H282.988C283.244 51.792 284.396 47.376 286.444 42.448L299.788 3.75998H321.292L322.252 11.152C321.228 12.56 319.404 13.744 316.78 14.704V58.672C319.276 59.632 321.036 60.752 322.06 62.032L321.1 70H299.212L298.252 62.128C299.276 60.848 301.036 59.728 303.532 58.768V33.808Z" class="FhgIMuAO_4"></path>
<path d="M349.922 70.768C342.37 70.768 336.77 68.752 333.122 64.72C329.474 60.688 327.65 54.608 327.65 46.48C327.65 38.288 329.666 32.048 333.698 27.76C337.794 23.408 343.65 21.232 351.266 21.232C358.882 21.232 364.514 23.152 368.162 26.992C371.874 30.832 373.73 36.848 373.73 45.04C373.73 53.168 371.65 59.504 367.49 64.048C363.394 68.528 357.538 70.768 349.922 70.768ZM341.474 45.616C341.474 55.856 344.546 60.976 350.69 60.976C353.826 60.976 356.13 59.824 357.602 57.52C359.138 55.152 359.906 51.312 359.906 46C359.906 36.016 356.77 31.024 350.498 31.024C347.426 31.024 345.154 32.144 343.682 34.384C342.21 36.56 341.474 40.304 341.474 45.616Z" class="FhgIMuAO_5"></path>
<path d="M407.452 33.808C402.588 33.808 399.228 34.736 397.372 36.592V58.576C402.556 59.536 406.108 60.88 408.028 62.608L407.068 70H379.612L378.652 62.608C379.548 61.392 381.308 60.304 383.932 59.344V32.656C381.692 31.888 379.932 30.8 378.652 29.392L379.612 22C383.132 21.232 386.3 20.848 389.116 20.848C391.932 20.848 394.268 20.912 396.124 21.04V27.088C397.596 25.36 399.484 23.952 401.788 22.864C404.092 21.712 406.172 21.136 408.028 21.136C409.948 21.136 411.26 21.296 411.964 21.616L411.676 34.096C410.396 33.904 408.988 33.808 407.452 33.808Z" class="FhgIMuAO_6"></path>
<path d="M416.831 22C420.351 21.232 423.519 20.848 426.335 20.848C429.151 20.848 431.487 20.912 433.343 21.04V25.84C434.943 24.496 437.055 23.408 439.679 22.576C442.367 21.68 444.927 21.232 447.359 21.232C453.631 21.232 458.015 22.704 460.511 25.648C463.071 28.592 464.351 33.68 464.351 40.912V59.344C466.847 60.304 468.607 61.392 469.631 62.608L468.671 70H446.591L445.631 62.608C446.527 61.392 448.287 60.304 450.911 59.344V40.336C450.911 36.88 450.335 34.576 449.183 33.424C448.095 32.208 446.111 31.6 443.231 31.6C440.351 31.6 437.471 32.624 434.591 34.672V59.344C437.087 60.304 438.847 61.392 439.871 62.608L438.911 70H416.831L415.871 62.608C416.767 61.392 418.527 60.304 421.151 59.344V32.656C418.911 31.888 417.151 30.8 415.871 29.392L416.831 22Z" class="FhgIMuAO_7"></path>
<path d="M474.117 22C477.701 21.168 481.029 20.752 484.101 20.752C487.173 20.752 489.765 20.848 491.877 21.04V59.344C494.373 60.304 496.133 61.392 497.157 62.608L496.197 70H474.117L473.157 62.608C474.053 61.392 475.813 60.304 478.437 59.344V32.656C476.197 31.888 474.437 30.8 473.157 29.392L474.117 22ZM484.965 15.376C479.653 15.376 476.997 12.976 476.997 8.17598C476.997 3.31198 479.653 0.879982 484.965 0.879982C490.341 0.879982 493.029 3.31198 493.029 8.17598C493.029 12.976 490.341 15.376 484.965 15.376Z" class="FhgIMuAO_8"></path>
<path d="M501.956 22C505.476 21.232 508.644 20.848 511.46 20.848C514.276 20.848 516.612 20.912 518.468 21.04V25.84C520.068 24.496 522.18 23.408 524.804 22.576C527.492 21.68 530.052 21.232 532.484 21.232C538.756 21.232 543.14 22.704 545.636 25.648C548.196 28.592 549.476 33.68 549.476 40.912V59.344C551.972 60.304 553.732 61.392 554.756 62.608L553.796 70H531.716L530.756 62.608C531.652 61.392 533.412 60.304 536.036 59.344V40.336C536.036 36.88 535.46 34.576 534.308 33.424C533.22 32.208 531.236 31.6 528.356 31.6C525.476 31.6 522.596 32.624 519.716 34.672V59.344C522.212 60.304 523.972 61.392 524.996 62.608L524.036 70H501.956L500.996 62.608C501.892 61.392 503.652 60.304 506.276 59.344V32.656C504.036 31.888 502.276 30.8 500.996 29.392L501.956 22Z" class="FhgIMuAO_9"></path>
<path d="M580.17 80.176C585.866 80.176 588.714 76.752 588.714 69.904V65.68C585.578 67.6 581.642 68.56 576.906 68.56C570.89 68.56 566.25 66.8 562.986 63.28C559.786 59.76 558.186 53.904 558.186 45.712C558.186 29.392 565.674 21.232 580.65 21.232C584.49 21.232 588.074 22.064 591.402 23.728C592.042 22.576 593.002 22 594.282 22H602.154V69.232C602.154 76.272 600.394 81.488 596.874 84.88C593.418 88.272 588.042 89.968 580.746 89.968C576.906 89.968 572.938 89.52 568.842 88.624C564.746 87.728 561.642 86.608 559.53 85.264C559.466 84.688 559.434 84.112 559.434 83.536C559.434 80.016 560.266 76.624 561.93 73.36H570.378C571.082 74.704 571.594 76.496 571.914 78.736C574.346 79.696 577.098 80.176 580.17 80.176ZM571.434 45.136C571.434 49.936 572.074 53.296 573.354 55.216C574.698 57.136 576.938 58.096 580.074 58.096C583.274 58.096 586.154 57.2 588.714 55.408V32.656C586.154 31.568 583.37 31.024 580.362 31.024C574.41 31.024 571.434 35.728 571.434 45.136Z" class="FhgIMuAO_10"></path>
<path d="M610.425 63.76C610.425 58.896 613.145 56.464 618.585 56.464C624.025 56.464 626.745 58.896 626.745 63.76C626.745 68.048 625.657 72.016 623.481 75.664C621.305 79.376 618.681 82.32 615.609 84.496L611.577 82C613.689 78.48 614.745 75.024 614.745 71.632C614.745 71.12 614.713 70.64 614.649 70.192C613.433 69.808 612.409 69.04 611.577 67.888C610.809 66.672 610.425 65.296 610.425 63.76Z" class="FhgIMuAO_11"></path>
<path d="M670.497 33.808V59.056C672.865 59.952 674.625 61.136 675.777 62.608L674.817 70H656.001L655.041 62.608C656.193 61.136 657.953 59.952 660.321 59.056V14.704C657.697 13.744 655.873 12.56 654.849 11.152L655.809 3.75998H675.585L694.689 41.008C696.097 43.696 697.473 47.28 698.817 51.76L699.489 54.064L700.545 53.68C699.649 48.112 699.201 43.44 699.201 39.664V14.8C696.897 13.904 695.137 12.688 693.921 11.152L694.881 3.75998H713.697L714.657 11.152C713.441 12.688 711.681 13.904 709.377 14.8V70H694.305L675.009 32.464C673.601 29.776 672.225 26.16 670.881 21.616L670.209 19.408L669.153 19.792C670.049 25.36 670.497 30.032 670.497 33.808Z" class="FhgIMuAO_12"></path>
<path d="M720.322 29.104C720.322 28.144 720.354 27.12 720.418 26.032C726.37 22.832 732.77 21.232 739.618 21.232C746.466 21.232 751.362 22.544 754.306 25.168C757.314 27.728 758.818 32.016 758.818 38.032V58.48C761.058 58.928 762.818 59.472 764.098 60.112V68.464C760.834 70 756.162 70.768 750.082 70.768C749.442 69.104 748.898 67.088 748.45 64.72C745.698 68.752 740.706 70.768 733.474 70.768C729.186 70.768 725.506 69.52 722.434 67.024C719.426 64.528 717.922 61.136 717.922 56.848C717.922 52.56 719.33 49.2 722.146 46.768C725.026 44.272 729.282 43.024 734.914 43.024H745.378V38.416C745.378 33.424 742.722 30.928 737.41 30.928C735.426 30.928 733.794 31.12 732.514 31.504C732.386 34.192 732.002 36.272 731.362 37.744H721.954C720.866 35.504 720.322 32.624 720.322 29.104ZM737.602 60.976C740.866 60.976 743.458 60.016 745.378 58.096V50.224H738.658C734.05 50.224 731.746 51.984 731.746 55.504C731.746 57.104 732.226 58.416 733.186 59.44C734.21 60.464 735.682 60.976 737.602 60.976Z" class="FhgIMuAO_13"></path>
<path d="M789.703 70.768C782.151 70.768 776.551 68.752 772.903 64.72C769.255 60.688 767.431 54.608 767.431 46.48C767.431 38.288 769.447 32.048 773.479 27.76C777.575 23.408 783.431 21.232 791.047 21.232C798.663 21.232 804.295 23.152 807.943 26.992C811.655 30.832 813.511 36.848 813.511 45.04C813.511 53.168 811.431 59.504 807.271 64.048C803.175 68.528 797.319 70.768 789.703 70.768ZM781.255 45.616C781.255 55.856 784.327 60.976 790.471 60.976C793.607 60.976 795.911 59.824 797.383 57.52C798.919 55.152 799.687 51.312 799.687 46C799.687 36.016 796.551 31.024 790.279 31.024C787.207 31.024 784.935 32.144 783.463 34.384C781.991 36.56 781.255 40.304 781.255 45.616Z" class="FhgIMuAO_14"></path>
<path d="M819.393 22C822.913 21.232 826.082 20.848 828.898 20.848C831.714 20.848 834.05 20.912 835.906 21.04V25.84C837.442 24.56 839.362 23.472 841.666 22.576C843.97 21.68 846.05 21.232 847.906 21.232C855.202 21.232 860.065 23.056 862.497 26.704C864.097 25.168 866.209 23.888 868.833 22.864C871.457 21.776 873.89 21.232 876.13 21.232C883.17 21.232 887.906 22.832 890.338 26.032C892.77 29.168 893.985 35.088 893.985 43.792V59.344C896.481 60.304 898.242 61.392 899.266 62.608L898.305 70H876.226L875.266 62.608C876.162 61.392 877.922 60.304 880.546 59.344V40.336C880.546 36.816 880.066 34.48 879.106 33.328C878.146 32.176 876.226 31.6 873.346 31.6C870.53 31.6 867.841 32.656 865.281 34.768C865.601 36.944 865.761 39.952 865.761 43.792V59.344C868.257 60.304 870.018 61.392 871.042 62.608L870.081 70H848.002L847.042 62.608C847.938 61.392 849.697 60.304 852.321 59.344V40.336C852.321 36.816 851.842 34.48 850.882 33.328C849.922 32.176 848.034 31.6 845.218 31.6C842.402 31.6 839.714 32.624 837.154 34.672V59.344C839.65 60.304 841.409 61.392 842.433 62.608L841.474 70H819.393L818.433 62.608C819.329 61.392 821.09 60.304 823.714 59.344V32.656C821.474 31.888 819.713 30.8 818.433 29.392L819.393 22Z" class="FhgIMuAO_15"></path>
<path d="M903.679 22C907.263 21.168 910.591 20.752 913.663 20.752C916.735 20.752 919.327 20.848 921.439 21.04V59.344C923.935 60.304 925.695 61.392 926.719 62.608L925.759 70H903.679L902.719 62.608C903.615 61.392 905.375 60.304 907.999 59.344V32.656C905.759 31.888 903.999 30.8 902.719 29.392L903.679 22ZM914.527 15.376C909.215 15.376 906.559 12.976 906.559 8.17598C906.559 3.31198 909.215 0.879982 914.527 0.879982C919.903 0.879982 922.591 3.31198 922.591 8.17598C922.591 12.976 919.903 15.376 914.527 15.376Z" class="FhgIMuAO_16"></path>
</mask>
<path d="M33.008 13.84C28.656 13.84 25.264 15.504 22.832 18.832C20.464 22.16 19.28 27.952 19.28 36.208C19.28 52.016 23.632 59.92 32.336 59.92C35.792 59.92 38.864 59.376 41.552 58.288V47.44C38.608 46.48 36.592 45.296 35.504 43.888L36.464 36.304H58.928L59.888 43.888C59.056 44.912 57.552 45.904 55.376 46.864V64.624C52.304 66.864 48.912 68.464 45.2 69.424C41.552 70.32 36.976 70.768 31.472 70.768C22.32 70.768 15.6 68.176 11.312 62.992C7.024 57.744 4.88 49.264 4.88 37.552C4.88 25.776 7.40801 17.072 12.464 11.44C17.584 5.80798 24.56 2.99198 33.392 2.99198C42.288 2.99198 49.552 5.00798 55.184 9.03998C55.184 9.42398 55.184 10.16 55.184 11.248C55.184 12.336 54.96 14.192 54.512 16.816C54.064 19.44 53.424 21.584 52.592 23.248H43.76C42.8 21.456 42.16 18.8 41.84 15.28C39.088 14.32 36.144 13.84 33.008 13.84Z" stroke="white" stroke-width="60" mask="url(#path-1-inside-1)" class="FhgIMuAO_17"></path>
<path d="M86.2033 70.768C78.6513 70.768 73.0513 68.752 69.4033 64.72C65.7553 60.688 63.9313 54.608 63.9313 46.48C63.9313 38.288 65.9473 32.048 69.9793 27.76C74.0753 23.408 79.9313 21.232 87.5473 21.232C95.1633 21.232 100.795 23.152 104.443 26.992C108.155 30.832 110.011 36.848 110.011 45.04C110.011 53.168 107.931 59.504 103.771 64.048C99.6753 68.528 93.8193 70.768 86.2033 70.768ZM77.7553 45.616C77.7553 55.856 80.8273 60.976 86.9713 60.976C90.1073 60.976 92.4113 59.824 93.8833 57.52C95.4193 55.152 96.1873 51.312 96.1873 46C96.1873 36.016 93.0513 31.024 86.7793 31.024C83.7073 31.024 81.4353 32.144 79.9633 34.384C78.4913 36.56 77.7553 40.304 77.7553 45.616Z" stroke="white" stroke-width="60" mask="url(#path-1-inside-1)" class="FhgIMuAO_18"></path>
<path d="M137.109 70.768C129.557 70.768 123.958 68.752 120.31 64.72C116.662 60.688 114.838 54.608 114.838 46.48C114.838 38.288 116.854 32.048 120.886 27.76C124.982 23.408 130.838 21.232 138.454 21.232C146.07 21.232 151.702 23.152 155.35 26.992C159.062 30.832 160.917 36.848 160.917 45.04C160.917 53.168 158.838 59.504 154.678 64.048C150.582 68.528 144.725 70.768 137.109 70.768ZM128.662 45.616C128.662 55.856 131.734 60.976 137.878 60.976C141.014 60.976 143.318 59.824 144.79 57.52C146.326 55.152 147.094 51.312 147.094 46C147.094 36.016 143.958 31.024 137.686 31.024C134.614 31.024 132.342 32.144 130.87 34.384C129.398 36.56 128.662 40.304 128.662 45.616Z" stroke="white" stroke-width="60" mask="url(#path-1-inside-1)" class="FhgIMuAO_19"></path>
<path d="M190.8 1.83998C194.448 1.00798 197.936 0.59198 201.264 0.59198C204.592 0.59198 207.44 0.687981 209.808 0.879982V58.48C211.728 58.8 213.488 59.344 215.088 60.112V67.696C211.248 69.744 206.384 70.768 200.496 70.768C199.856 70.448 199.216 69.872 198.576 69.04C198 68.208 197.68 67.408 197.616 66.64C196.208 67.792 194.384 68.784 192.144 69.616C189.904 70.384 187.696 70.768 185.52 70.768C178.608 70.768 173.584 68.912 170.448 65.2C167.376 61.424 165.84 55.28 165.84 46.768C165.84 37.104 168.208 30.32 172.944 26.416C177.104 22.96 182.224 21.232 188.304 21.232C190.992 21.232 193.68 21.552 196.368 22.192V12.688C193.424 11.856 191.248 10.704 189.84 9.23198L190.8 1.83998ZM187.536 60.976C191.184 60.976 194.128 59.888 196.368 57.712V31.984C193.744 31.344 190.96 31.024 188.016 31.024C185.072 31.024 182.928 32.336 181.584 34.96C180.304 37.52 179.664 41.392 179.664 46.576C179.664 51.696 180.304 55.376 181.584 57.616C182.864 59.856 184.848 60.976 187.536 60.976Z" stroke="white" stroke-width="60" mask="url(#path-1-inside-1)" class="FhgIMuAO_20"></path>
<path d="M303.532 33.808C303.532 31.248 303.756 27.28 304.204 21.904L304.396 19.6L303.436 19.504C301.964 24.944 300.684 29.264 299.596 32.464L286.828 70H274.06L260.62 32.464C259.404 29.584 258.316 26 257.356 21.712L256.78 19.504L255.82 19.6C256.396 25.296 256.684 30.032 256.684 33.808V59.056C259.052 59.952 260.812 61.136 261.964 62.608L261.004 70H242.188L241.228 62.608C242.38 61.136 244.14 59.952 246.508 59.056V14.704C243.884 13.744 242.06 12.56 241.036 11.152L241.996 3.75998H263.884L277.9 42.448C279.692 46.672 280.844 50.544 281.356 54.064L281.644 55.696H282.988C283.244 51.792 284.396 47.376 286.444 42.448L299.788 3.75998H321.292L322.252 11.152C321.228 12.56 319.404 13.744 316.78 14.704V58.672C319.276 59.632 321.036 60.752 322.06 62.032L321.1 70H299.212L298.252 62.128C299.276 60.848 301.036 59.728 303.532 58.768V33.808Z" stroke="white" stroke-width="60" mask="url(#path-1-inside-1)" class="FhgIMuAO_21"></path>
<path d="M349.922 70.768C342.37 70.768 336.77 68.752 333.122 64.72C329.474 60.688 327.65 54.608 327.65 46.48C327.65 38.288 329.666 32.048 333.698 27.76C337.794 23.408 343.65 21.232 351.266 21.232C358.882 21.232 364.514 23.152 368.162 26.992C371.874 30.832 373.73 36.848 373.73 45.04C373.73 53.168 371.65 59.504 367.49 64.048C363.394 68.528 357.538 70.768 349.922 70.768ZM341.474 45.616C341.474 55.856 344.546 60.976 350.69 60.976C353.826 60.976 356.13 59.824 357.602 57.52C359.138 55.152 359.906 51.312 359.906 46C359.906 36.016 356.77 31.024 350.498 31.024C347.426 31.024 345.154 32.144 343.682 34.384C342.21 36.56 341.474 40.304 341.474 45.616Z" stroke="white" stroke-width="60" mask="url(#path-1-inside-1)" class="FhgIMuAO_22"></path>
<path d="M407.452 33.808C402.588 33.808 399.228 34.736 397.372 36.592V58.576C402.556 59.536 406.108 60.88 408.028 62.608L407.068 70H379.612L378.652 62.608C379.548 61.392 381.308 60.304 383.932 59.344V32.656C381.692 31.888 379.932 30.8 378.652 29.392L379.612 22C383.132 21.232 386.3 20.848 389.116 20.848C391.932 20.848 394.268 20.912 396.124 21.04V27.088C397.596 25.36 399.484 23.952 401.788 22.864C404.092 21.712 406.172 21.136 408.028 21.136C409.948 21.136 411.26 21.296 411.964 21.616L411.676 34.096C410.396 33.904 408.988 33.808 407.452 33.808Z" stroke="white" stroke-width="60" mask="url(#path-1-inside-1)" class="FhgIMuAO_23"></path>
<path d="M416.831 22C420.351 21.232 423.519 20.848 426.335 20.848C429.151 20.848 431.487 20.912 433.343 21.04V25.84C434.943 24.496 437.055 23.408 439.679 22.576C442.367 21.68 444.927 21.232 447.359 21.232C453.631 21.232 458.015 22.704 460.511 25.648C463.071 28.592 464.351 33.68 464.351 40.912V59.344C466.847 60.304 468.607 61.392 469.631 62.608L468.671 70H446.591L445.631 62.608C446.527 61.392 448.287 60.304 450.911 59.344V40.336C450.911 36.88 450.335 34.576 449.183 33.424C448.095 32.208 446.111 31.6 443.231 31.6C440.351 31.6 437.471 32.624 434.591 34.672V59.344C437.087 60.304 438.847 61.392 439.871 62.608L438.911 70H416.831L415.871 62.608C416.767 61.392 418.527 60.304 421.151 59.344V32.656C418.911 31.888 417.151 30.8 415.871 29.392L416.831 22Z" stroke="white" stroke-width="60" mask="url(#path-1-inside-1)" class="FhgIMuAO_24"></path>
<path d="M474.117 22C477.701 21.168 481.029 20.752 484.101 20.752C487.173 20.752 489.765 20.848 491.877 21.04V59.344C494.373 60.304 496.133 61.392 497.157 62.608L496.197 70H474.117L473.157 62.608C474.053 61.392 475.813 60.304 478.437 59.344V32.656C476.197 31.888 474.437 30.8 473.157 29.392L474.117 22ZM484.965 15.376C479.653 15.376 476.997 12.976 476.997 8.17598C476.997 3.31198 479.653 0.879982 484.965 0.879982C490.341 0.879982 493.029 3.31198 493.029 8.17598C493.029 12.976 490.341 15.376 484.965 15.376Z" stroke="white" stroke-width="60" mask="url(#path-1-inside-1)" class="FhgIMuAO_25"></path>
<path d="M501.956 22C505.476 21.232 508.644 20.848 511.46 20.848C514.276 20.848 516.612 20.912 518.468 21.04V25.84C520.068 24.496 522.18 23.408 524.804 22.576C527.492 21.68 530.052 21.232 532.484 21.232C538.756 21.232 543.14 22.704 545.636 25.648C548.196 28.592 549.476 33.68 549.476 40.912V59.344C551.972 60.304 553.732 61.392 554.756 62.608L553.796 70H531.716L530.756 62.608C531.652 61.392 533.412 60.304 536.036 59.344V40.336C536.036 36.88 535.46 34.576 534.308 33.424C533.22 32.208 531.236 31.6 528.356 31.6C525.476 31.6 522.596 32.624 519.716 34.672V59.344C522.212 60.304 523.972 61.392 524.996 62.608L524.036 70H501.956L500.996 62.608C501.892 61.392 503.652 60.304 506.276 59.344V32.656C504.036 31.888 502.276 30.8 500.996 29.392L501.956 22Z" stroke="white" stroke-width="60" mask="url(#path-1-inside-1)" class="FhgIMuAO_26"></path>
<path d="M580.17 80.176C585.866 80.176 588.714 76.752 588.714 69.904V65.68C585.578 67.6 581.642 68.56 576.906 68.56C570.89 68.56 566.25 66.8 562.986 63.28C559.786 59.76 558.186 53.904 558.186 45.712C558.186 29.392 565.674 21.232 580.65 21.232C584.49 21.232 588.074 22.064 591.402 23.728C592.042 22.576 593.002 22 594.282 22H602.154V69.232C602.154 76.272 600.394 81.488 596.874 84.88C593.418 88.272 588.042 89.968 580.746 89.968C576.906 89.968 572.938 89.52 568.842 88.624C564.746 87.728 561.642 86.608 559.53 85.264C559.466 84.688 559.434 84.112 559.434 83.536C559.434 80.016 560.266 76.624 561.93 73.36H570.378C571.082 74.704 571.594 76.496 571.914 78.736C574.346 79.696 577.098 80.176 580.17 80.176ZM571.434 45.136C571.434 49.936 572.074 53.296 573.354 55.216C574.698 57.136 576.938 58.096 580.074 58.096C583.274 58.096 586.154 57.2 588.714 55.408V32.656C586.154 31.568 583.37 31.024 580.362 31.024C574.41 31.024 571.434 35.728 571.434 45.136Z" stroke="white" stroke-width="60" mask="url(#path-1-inside-1)" class="FhgIMuAO_27"></path>
<path d="M610.425 63.76C610.425 58.896 613.145 56.464 618.585 56.464C624.025 56.464 626.745 58.896 626.745 63.76C626.745 68.048 625.657 72.016 623.481 75.664C621.305 79.376 618.681 82.32 615.609 84.496L611.577 82C613.689 78.48 614.745 75.024 614.745 71.632C614.745 71.12 614.713 70.64 614.649 70.192C613.433 69.808 612.409 69.04 611.577 67.888C610.809 66.672 610.425 65.296 610.425 63.76Z" stroke="white" stroke-width="60" mask="url(#path-1-inside-1)" class="FhgIMuAO_28"></path>
<path d="M670.497 33.808V59.056C672.865 59.952 674.625 61.136 675.777 62.608L674.817 70H656.001L655.041 62.608C656.193 61.136 657.953 59.952 660.321 59.056V14.704C657.697 13.744 655.873 12.56 654.849 11.152L655.809 3.75998H675.585L694.689 41.008C696.097 43.696 697.473 47.28 698.817 51.76L699.489 54.064L700.545 53.68C699.649 48.112 699.201 43.44 699.201 39.664V14.8C696.897 13.904 695.137 12.688 693.921 11.152L694.881 3.75998H713.697L714.657 11.152C713.441 12.688 711.681 13.904 709.377 14.8V70H694.305L675.009 32.464C673.601 29.776 672.225 26.16 670.881 21.616L670.209 19.408L669.153 19.792C670.049 25.36 670.497 30.032 670.497 33.808Z" stroke="white" stroke-width="60" mask="url(#path-1-inside-1)" class="FhgIMuAO_29"></path>
<path d="M720.322 29.104C720.322 28.144 720.354 27.12 720.418 26.032C726.37 22.832 732.77 21.232 739.618 21.232C746.466 21.232 751.362 22.544 754.306 25.168C757.314 27.728 758.818 32.016 758.818 38.032V58.48C761.058 58.928 762.818 59.472 764.098 60.112V68.464C760.834 70 756.162 70.768 750.082 70.768C749.442 69.104 748.898 67.088 748.45 64.72C745.698 68.752 740.706 70.768 733.474 70.768C729.186 70.768 725.506 69.52 722.434 67.024C719.426 64.528 717.922 61.136 717.922 56.848C717.922 52.56 719.33 49.2 722.146 46.768C725.026 44.272 729.282 43.024 734.914 43.024H745.378V38.416C745.378 33.424 742.722 30.928 737.41 30.928C735.426 30.928 733.794 31.12 732.514 31.504C732.386 34.192 732.002 36.272 731.362 37.744H721.954C720.866 35.504 720.322 32.624 720.322 29.104ZM737.602 60.976C740.866 60.976 743.458 60.016 745.378 58.096V50.224H738.658C734.05 50.224 731.746 51.984 731.746 55.504C731.746 57.104 732.226 58.416 733.186 59.44C734.21 60.464 735.682 60.976 737.602 60.976Z" stroke="white" stroke-width="60" mask="url(#path-1-inside-1)" class="FhgIMuAO_30"></path>
<path d="M789.703 70.768C782.151 70.768 776.551 68.752 772.903 64.72C769.255 60.688 767.431 54.608 767.431 46.48C767.431 38.288 769.447 32.048 773.479 27.76C777.575 23.408 783.431 21.232 791.047 21.232C798.663 21.232 804.295 23.152 807.943 26.992C811.655 30.832 813.511 36.848 813.511 45.04C813.511 53.168 811.431 59.504 807.271 64.048C803.175 68.528 797.319 70.768 789.703 70.768ZM781.255 45.616C781.255 55.856 784.327 60.976 790.471 60.976C793.607 60.976 795.911 59.824 797.383 57.52C798.919 55.152 799.687 51.312 799.687 46C799.687 36.016 796.551 31.024 790.279 31.024C787.207 31.024 784.935 32.144 783.463 34.384C781.991 36.56 781.255 40.304 781.255 45.616Z" stroke="white" stroke-width="60" mask="url(#path-1-inside-1)" class="FhgIMuAO_31"></path>
<path d="M819.393 22C822.913 21.232 826.082 20.848 828.898 20.848C831.714 20.848 834.05 20.912 835.906 21.04V25.84C837.442 24.56 839.362 23.472 841.666 22.576C843.97 21.68 846.05 21.232 847.906 21.232C855.202 21.232 860.065 23.056 862.497 26.704C864.097 25.168 866.209 23.888 868.833 22.864C871.457 21.776 873.89 21.232 876.13 21.232C883.17 21.232 887.906 22.832 890.338 26.032C892.77 29.168 893.985 35.088 893.985 43.792V59.344C896.481 60.304 898.242 61.392 899.266 62.608L898.305 70H876.226L875.266 62.608C876.162 61.392 877.922 60.304 880.546 59.344V40.336C880.546 36.816 880.066 34.48 879.106 33.328C878.146 32.176 876.226 31.6 873.346 31.6C870.53 31.6 867.841 32.656 865.281 34.768C865.601 36.944 865.761 39.952 865.761 43.792V59.344C868.257 60.304 870.018 61.392 871.042 62.608L870.081 70H848.002L847.042 62.608C847.938 61.392 849.697 60.304 852.321 59.344V40.336C852.321 36.816 851.842 34.48 850.882 33.328C849.922 32.176 848.034 31.6 845.218 31.6C842.402 31.6 839.714 32.624 837.154 34.672V59.344C839.65 60.304 841.409 61.392 842.433 62.608L841.474 70H819.393L818.433 62.608C819.329 61.392 821.09 60.304 823.714 59.344V32.656C821.474 31.888 819.713 30.8 818.433 29.392L819.393 22Z" stroke="white" stroke-width="60" mask="url(#path-1-inside-1)" class="FhgIMuAO_32"></path>
<path d="M903.679 22C907.263 21.168 910.591 20.752 913.663 20.752C916.735 20.752 919.327 20.848 921.439 21.04V59.344C923.935 60.304 925.695 61.392 926.719 62.608L925.759 70H903.679L902.719 62.608C903.615 61.392 905.375 60.304 907.999 59.344V32.656C905.759 31.888 903.999 30.8 902.719 29.392L903.679 22ZM914.527 15.376C909.215 15.376 906.559 12.976 906.559 8.17598C906.559 3.31198 909.215 0.879982 914.527 0.879982C919.903 0.879982 922.591 3.31198 922.591 8.17598C922.591 12.976 919.903 15.376 914.527 15.376Z" stroke="white" stroke-width="60" mask="url(#path-1-inside-1)" class="FhgIMuAO_33"></path>
</g>
<defs>
<filter id="filter0_d" x="0.880005" y="0.59198" width="929.839" height="97.376" filterUnits="userSpaceOnUse" color-interpolation-filters="sRGB">
<feFlood flood-opacity="0" result="BackgroundImageFix"></feFlood>
<feColorMatrix in="SourceAlpha" type="matrix" values="0 0 0 0 0 0 0 0 0 0 0 0 0 0 0 0 0 0 127 0"></feColorMatrix>
<feOffset dy="4"></feOffset>
<feGaussianBlur stdDeviation="2"></feGaussianBlur>
<feColorMatrix type="matrix" values="0 0 0 0 0 0 0 0 0 0 0 0 0 0 0 0 0 0 0.25 0"></feColorMatrix>
<feBlend mode="normal" in2="BackgroundImageFix" result="effect1_dropShadow"></feBlend>
<feBlend mode="normal" in="SourceGraphic" in2="effect1_dropShadow" result="shape"></feBlend>
</filter>
</defs>
<style data-made-with="vivus-instant">.FhgIMuAO_0{stroke-dasharray:338 340;stroke-dashoffset:339;animation:FhgIMuAO_draw_0 15000ms linear 0ms infinite,FhgIMuAO_fade 15000ms linear 0ms infinite;}.FhgIMuAO_1{stroke-dasharray:235 237;stroke-dashoffset:236;animation:FhgIMuAO_draw_1 15000ms linear 0ms infinite,FhgIMuAO_fade 15000ms linear 0ms infinite;}.FhgIMuAO_2{stroke-dasharray:235 237;stroke-dashoffset:236;animation:FhgIMuAO_draw_2 15000ms linear 0ms infinite,FhgIMuAO_fade 15000ms linear 0ms infinite;}.FhgIMuAO_3{stroke-dasharray:313 315;stroke-dashoffset:314;animation:FhgIMuAO_draw_3 15000ms linear 0ms infinite,FhgIMuAO_fade 15000ms linear 0ms infinite;}.FhgIMuAO_4{stroke-dasharray:568 570;stroke-dashoffset:569;animation:FhgIMuAO_draw_4 15000ms linear 0ms infinite,FhgIMuAO_fade 15000ms linear 0ms infinite;}.FhgIMuAO_5{stroke-dasharray:235 237;stroke-dashoffset:236;animation:FhgIMuAO_draw_5 15000ms linear 0ms infinite,FhgIMuAO_fade 15000ms linear 0ms infinite;}.FhgIMuAO_6{stroke-dasharray:191 193;stroke-dashoffset:192;animation:FhgIMuAO_draw_6 15000ms linear 0ms infinite,FhgIMuAO_fade 15000ms linear 0ms infinite;}.FhgIMuAO_7{stroke-dasharray:292 294;stroke-dashoffset:293;animation:FhgIMuAO_draw_7 15000ms linear 0ms infinite,FhgIMuAO_fade 15000ms linear 0ms infinite;}.FhgIMuAO_8{stroke-dasharray:196 198;stroke-dashoffset:197;animation:FhgIMuAO_draw_8 15000ms linear 0ms infinite,FhgIMuAO_fade 15000ms linear 0ms infinite;}.FhgIMuAO_9{stroke-dasharray:292 294;stroke-dashoffset:293;animation:FhgIMuAO_draw_9 15000ms linear 0ms infinite,FhgIMuAO_fade 15000ms linear 0ms infinite;}.FhgIMuAO_10{stroke-dasharray:343 345;stroke-dashoffset:344;animation:FhgIMuAO_draw_10 15000ms linear 0ms infinite,FhgIMuAO_fade 15000ms linear 0ms infinite;}.FhgIMuAO_11{stroke-dasharray:75 77;stroke-dashoffset:76;animation:FhgIMuAO_draw_11 15000ms linear 0ms infinite,FhgIMuAO_fade 15000ms linear 0ms infinite;}.FhgIMuAO_12{stroke-dasharray:435 437;stroke-dashoffset:436;animation:FhgIMuAO_draw_12 15000ms linear 0ms infinite,FhgIMuAO_fade 15000ms linear 0ms infinite;}.FhgIMuAO_13{stroke-dasharray:273 275;stroke-dashoffset:274;animation:FhgIMuAO_draw_13 15000ms linear 0ms infinite,FhgIMuAO_fade 15000ms linear 0ms infinite;}.FhgIMuAO_14{stroke-dasharray:235 237;stroke-dashoffset:236;animation:FhgIMuAO_draw_14 15000ms linear 0ms infinite,FhgIMuAO_fade 15000ms linear 0ms infinite;}.FhgIMuAO_15{stroke-dasharray:436 438;stroke-dashoffset:437;animation:FhgIMuAO_draw_15 15000ms linear 0ms infinite,FhgIMuAO_fade 15000ms linear 0ms infinite;}.FhgIMuAO_16{stroke-dasharray:196 198;stroke-dashoffset:197;animation:FhgIMuAO_draw_16 15000ms linear 0ms infinite,FhgIMuAO_fade 15000ms linear 0ms infinite;}.FhgIMuAO_17{stroke-dasharray:338 340;stroke-dashoffset:339;animation:FhgIMuAO_draw_17 15000ms linear 0ms infinite,FhgIMuAO_fade 15000ms linear 0ms infinite;}.FhgIMuAO_18{stroke-dasharray:235 237;stroke-dashoffset:236;animation:FhgIMuAO_draw_18 15000ms linear 0ms infinite,FhgIMuAO_fade 15000ms linear 0ms infinite;}.FhgIMuAO_19{stroke-dasharray:235 237;stroke-dashoffset:236;animation:FhgIMuAO_draw_19 15000ms linear 0ms infinite,FhgIMuAO_fade 15000ms linear 0ms infinite;}.FhgIMuAO_20{stroke-dasharray:313 315;stroke-dashoffset:314;animation:FhgIMuAO_draw_20 15000ms linear 0ms infinite,FhgIMuAO_fade 15000ms linear 0ms infinite;}.FhgIMuAO_21{stroke-dasharray:568 570;stroke-dashoffset:569;animation:FhgIMuAO_draw_21 15000ms linear 0ms infinite,FhgIMuAO_fade 15000ms linear 0ms infinite;}.FhgIMuAO_22{stroke-dasharray:235 237;stroke-dashoffset:236;animation:FhgIMuAO_draw_22 15000ms linear 0ms infinite,FhgIMuAO_fade 15000ms linear 0ms infinite;}.FhgIMuAO_23{stroke-dasharray:191 193;stroke-dashoffset:192;animation:FhgIMuAO_draw_23 15000ms linear 0ms infinite,FhgIMuAO_fade 15000ms linear 0ms infinite;}.FhgIMuAO_24{stroke-dasharray:292 294;stroke-dashoffset:293;animation:FhgIMuAO_draw_24 15000ms linear 0ms infinite,FhgIMuAO_fade 15000ms linear 0ms infinite;}.FhgIMuAO_25{stroke-dasharray:196 198;stroke-dashoffset:197;animation:FhgIMuAO_draw_25 15000ms linear 0ms infinite,FhgIMuAO_fade 15000ms linear 0ms infinite;}.FhgIMuAO_26{stroke-dasharray:292 294;stroke-dashoffset:293;animation:FhgIMuAO_draw_26 15000ms linear 0ms infinite,FhgIMuAO_fade 15000ms linear 0ms infinite;}.FhgIMuAO_27{stroke-dasharray:343 345;stroke-dashoffset:344;animation:FhgIMuAO_draw_27 15000ms linear 0ms infinite,FhgIMuAO_fade 15000ms linear 0ms infinite;}.FhgIMuAO_28{stroke-dasharray:75 77;stroke-dashoffset:76;animation:FhgIMuAO_draw_28 15000ms linear 0ms infinite,FhgIMuAO_fade 15000ms linear 0ms infinite;}.FhgIMuAO_29{stroke-dasharray:435 437;stroke-dashoffset:436;animation:FhgIMuAO_draw_29 15000ms linear 0ms infinite,FhgIMuAO_fade 15000ms linear 0ms infinite;}.FhgIMuAO_30{stroke-dasharray:273 275;stroke-dashoffset:274;animation:FhgIMuAO_draw_30 15000ms linear 0ms infinite,FhgIMuAO_fade 15000ms linear 0ms infinite;}.FhgIMuAO_31{stroke-dasharray:235 237;stroke-dashoffset:236;animation:FhgIMuAO_draw_31 15000ms linear 0ms infinite,FhgIMuAO_fade 15000ms linear 0ms infinite;}.FhgIMuAO_32{stroke-dasharray:436 438;stroke-dashoffset:437;animation:FhgIMuAO_draw_32 15000ms linear 0ms infinite,FhgIMuAO_fade 15000ms linear 0ms infinite;}.FhgIMuAO_33{stroke-dasharray:196 198;stroke-dashoffset:197;animation:FhgIMuAO_draw_33 15000ms linear 0ms infinite,FhgIMuAO_fade 15000ms linear 0ms infinite;}@keyframes FhgIMuAO_draw{100%{stroke-dashoffset:0;}}@keyframes FhgIMuAO_fade{0%{stroke-opacity:1;}93.33333333333333%{stroke-opacity:1;}100%{stroke-opacity:0;}}@keyframes FhgIMuAO_draw_0{0%{stroke-dashoffset: 339}23.333333333333332%{ stroke-dashoffset: 0;}100%{ stroke-dashoffset: 0;}}@keyframes FhgIMuAO_draw_1{0.10101010101010101%{stroke-dashoffset: 236}23.434343434343432%{ stroke-dashoffset: 0;}100%{ stroke-dashoffset: 0;}}@keyframes FhgIMuAO_draw_2{0.20202020202020202%{stroke-dashoffset: 236}23.535353535353536%{ stroke-dashoffset: 0;}100%{ stroke-dashoffset: 0;}}@keyframes FhgIMuAO_draw_3{0.30303030303030304%{stroke-dashoffset: 314}23.636363636363637%{ stroke-dashoffset: 0;}100%{ stroke-dashoffset: 0;}}@keyframes FhgIMuAO_draw_4{0.40404040404040403%{stroke-dashoffset: 569}23.737373737373737%{ stroke-dashoffset: 0;}100%{ stroke-dashoffset: 0;}}@keyframes FhgIMuAO_draw_5{0.5050505050505051%{stroke-dashoffset: 236}23.83838383838384%{ stroke-dashoffset: 0;}100%{ stroke-dashoffset: 0;}}@keyframes FhgIMuAO_draw_6{0.6060606060606061%{stroke-dashoffset: 192}23.93939393939394%{ stroke-dashoffset: 0;}100%{ stroke-dashoffset: 0;}}@keyframes FhgIMuAO_draw_7{0.7070707070707071%{stroke-dashoffset: 293}24.04040404040404%{ stroke-dashoffset: 0;}100%{ stroke-dashoffset: 0;}}@keyframes FhgIMuAO_draw_8{0.8080808080808081%{stroke-dashoffset: 197}24.141414141414142%{ stroke-dashoffset: 0;}100%{ stroke-dashoffset: 0;}}@keyframes FhgIMuAO_draw_9{0.9090909090909092%{stroke-dashoffset: 293}24.242424242424242%{ stroke-dashoffset: 0;}100%{ stroke-dashoffset: 0;}}@keyframes FhgIMuAO_draw_10{1.0101010101010102%{stroke-dashoffset: 344}24.343434343434343%{ stroke-dashoffset: 0;}100%{ stroke-dashoffset: 0;}}@keyframes FhgIMuAO_draw_11{1.1111111111111112%{stroke-dashoffset: 76}24.444444444444443%{ stroke-dashoffset: 0;}100%{ stroke-dashoffset: 0;}}@keyframes FhgIMuAO_draw_12{1.2121212121212122%{stroke-dashoffset: 436}24.545454545454547%{ stroke-dashoffset: 0;}100%{ stroke-dashoffset: 0;}}@keyframes FhgIMuAO_draw_13{1.3131313131313131%{stroke-dashoffset: 274}24.646464646464647%{ stroke-dashoffset: 0;}100%{ stroke-dashoffset: 0;}}@keyframes FhgIMuAO_draw_14{1.4141414141414141%{stroke-dashoffset: 236}24.747474747474747%{ stroke-dashoffset: 0;}100%{ stroke-dashoffset: 0;}}@keyframes FhgIMuAO_draw_15{1.5151515151515151%{stroke-dashoffset: 437}24.84848484848485%{ stroke-dashoffset: 0;}100%{ stroke-dashoffset: 0;}}@keyframes FhgIMuAO_draw_16{1.6161616161616161%{stroke-dashoffset: 197}24.949494949494948%{ stroke-dashoffset: 0;}100%{ stroke-dashoffset: 0;}}@keyframes FhgIMuAO_draw_17{1.7171717171717171%{stroke-dashoffset: 339}25.050505050505052%{ stroke-dashoffset: 0;}100%{ stroke-dashoffset: 0;}}@keyframes FhgIMuAO_draw_18{1.8181818181818183%{stroke-dashoffset: 236}25.151515151515152%{ stroke-dashoffset: 0;}100%{ stroke-dashoffset: 0;}}@keyframes FhgIMuAO_draw_19{1.9191919191919191%{stroke-dashoffset: 236}25.252525252525253%{ stroke-dashoffset: 0;}100%{ stroke-dashoffset: 0;}}@keyframes FhgIMuAO_draw_20{2.0202020202020203%{stroke-dashoffset: 314}25.353535353535356%{ stroke-dashoffset: 0;}100%{ stroke-dashoffset: 0;}}@keyframes FhgIMuAO_draw_21{2.1212121212121215%{stroke-dashoffset: 569}25.454545454545453%{ stroke-dashoffset: 0;}100%{ stroke-dashoffset: 0;}}@keyframes FhgIMuAO_draw_22{2.2222222222222223%{stroke-dashoffset: 236}25.55555555555556%{ stroke-dashoffset: 0;}100%{ stroke-dashoffset: 0;}}@keyframes FhgIMuAO_draw_23{2.323232323232323%{stroke-dashoffset: 192}25.656565656565654%{ stroke-dashoffset: 0;}100%{ stroke-dashoffset: 0;}}@keyframes FhgIMuAO_draw_24{2.4242424242424243%{stroke-dashoffset: 293}25.757575757575758%{ stroke-dashoffset: 0;}100%{ stroke-dashoffset: 0;}}@keyframes FhgIMuAO_draw_25{2.5252525252525255%{stroke-dashoffset: 197}25.858585858585858%{ stroke-dashoffset: 0;}100%{ stroke-dashoffset: 0;}}@keyframes FhgIMuAO_draw_26{2.6262626262626263%{stroke-dashoffset: 293}25.95959595959596%{ stroke-dashoffset: 0;}100%{ stroke-dashoffset: 0;}}@keyframes FhgIMuAO_draw_27{2.7272727272727275%{stroke-dashoffset: 344}26.060606060606062%{ stroke-dashoffset: 0;}100%{ stroke-dashoffset: 0;}}@keyframes FhgIMuAO_draw_28{2.8282828282828283%{stroke-dashoffset: 76}26.16161616161616%{ stroke-dashoffset: 0;}100%{ stroke-dashoffset: 0;}}@keyframes FhgIMuAO_draw_29{2.9292929292929295%{stroke-dashoffset: 436}26.262626262626267%{ stroke-dashoffset: 0;}100%{ stroke-dashoffset: 0;}}@keyframes FhgIMuAO_draw_30{3.0303030303030303%{stroke-dashoffset: 274}26.36363636363636%{ stroke-dashoffset: 0;}100%{ stroke-dashoffset: 0;}}@keyframes FhgIMuAO_draw_31{3.1313131313131315%{stroke-dashoffset: 236}26.464646464646467%{ stroke-dashoffset: 0;}100%{ stroke-dashoffset: 0;}}@keyframes FhgIMuAO_draw_32{3.2323232323232323%{stroke-dashoffset: 437}26.565656565656564%{ stroke-dashoffset: 0;}100%{ stroke-dashoffset: 0;}}@keyframes FhgIMuAO_draw_33{3.3333333333333335%{stroke-dashoffset: 197}26.666666666666668%{ stroke-dashoffset: 0;}100%{ stroke-dashoffset: 0;}}</style></svg>
